<?xml version="1.0" encoding="iso-8859-1"?>
<!-- Generator: Adobe Illustrator 19.0.0, SVG Export Plug-In . SVG Version: 6.00 Build 0)  -->
<svg version="1.1" id="Layer_1" xmlns="http://www.w3.org/2000/svg" xmlns:xlink="http://www.w3.org/1999/xlink" x="0px" y="0px"
	 viewBox="0 0 511.181 511.181" style="enable-background:new 0 0 511.181 511.181;" xml:space="preserve">
<g transform="translate(0 1)">
	<path style="fill:#FFE100;" d="M384,189.737l-26.453-47.787c-8.533-15.36-34.133-23.893-50.347-23.893H136.533
		c-16.213,0-30.72,9.387-38.4,23.893l-38.4,69.12c-5.973,11.093-2.56,17.92-14.507,17.92l0,0c-6.827,0-11.947,5.973-11.947,12.8
		c0,18.773,0,53.76,0,76.8c0,11.947,8.533,21.333,18.773,21.333h7.68c0-28.16,22.187-51.2,47.787-51.2s46.08,23.04,46.08,51.2h204.8
		c0-28.16,20.48-51.2,46.08-51.2s47.787,23.04,47.787,51.2h2.56c12.8,0,23.04-11.947,23.04-25.6v-71.68
		c0-6.827-5.12-12.8-11.947-12.8H435.2C409.6,228.99,397.653,214.484,384,189.737"/>
	<path style="fill:#FFFFFF;" d="M22.187,228.99L22.187,228.99c-7.68,0-13.653,5.973-13.653,12.8c0,18.773,0,53.76,0,76.8
		c0,11.947,9.387,21.333,21.333,21.333H51.2l0,0c-10.24-0.853-17.92-10.24-17.92-21.333c0-23.04,0-58.027,0-76.8
		c0-6.827,5.12-12.8,11.947-12.8l0,0"/>
	<path style="fill:#FFA800;" d="M486.4,228.99h-23.893c6.827,0,11.947,5.973,11.947,12.8v72.533c0,11.947-7.68,22.187-17.92,24.747
		v0.853H473.6c14.507,0,25.6-11.947,25.6-25.6v-71.68C499.2,234.964,493.227,228.99,486.4,228.99"/>
	<path style="fill:#63D3FD;" d="M356.693,189.737L332.8,152.19H143.36c-3.413,0-6.827,3.413-6.827,6.827v36.693
		c0,4.267,3.413,6.827,6.827,6.827h223.573C362.667,199.124,359.253,194.857,356.693,189.737"/>
	<path style="fill:#3DB9F9;" d="M382.293,189.737L358.4,152.19h-29.013l23.04,37.547c3.413,5.12,6.827,9.387,10.24,13.653h29.867
		C388.267,199.124,384.853,194.857,382.293,189.737"/>
	<path style="fill:#FECC00;" d="M435.2,339.924c0,28.16-17.067,51.2-38.4,51.2s-38.4-23.04-38.4-51.2s17.067-51.2,38.4-51.2
		S435.2,311.764,435.2,339.924"/>
	<path style="fill:#FFA800;" d="M409.6,288.724c-2.56,0-5.12,0-7.68,0.853c18.773,3.413,33.28,24.747,33.28,50.347
		s-14.507,46.933-33.28,50.347c2.56,0,5.12,0.853,7.68,0.853c28.16,0,51.2-23.04,51.2-51.2S437.76,288.724,409.6,288.724"/>
	<path style="fill:#FECC00;" d="M128,339.924c0,28.16-17.067,51.2-38.4,51.2s-38.4-23.04-38.4-51.2s17.067-51.2,38.4-51.2
		S128,311.764,128,339.924"/>
	<path style="fill:#FFA800;" d="M102.4,288.724c-2.56,0-5.12,0-7.68,0.853c18.773,3.413,33.28,24.747,33.28,50.347
		s-14.507,46.933-33.28,50.347c2.56,0,5.12,0.853,7.68,0.853c28.16,0,51.2-23.04,51.2-51.2S130.56,288.724,102.4,288.724"/>
	<path d="M102.4,399.657c-33.28,0-59.733-26.453-59.733-59.733S69.12,280.19,102.4,280.19s59.733,26.453,59.733,59.733
		S135.68,399.657,102.4,399.657z M102.4,297.257c-23.893,0-42.667,18.773-42.667,42.667c0,23.893,18.773,42.667,42.667,42.667
		s42.667-18.773,42.667-42.667C145.067,316.03,126.293,297.257,102.4,297.257z"/>
	<path d="M119.467,339.924c0,9.387-7.68,17.067-17.067,17.067s-17.067-7.68-17.067-17.067c0-9.387,7.68-17.067,17.067-17.067
		S119.467,330.537,119.467,339.924"/>
	<path d="M409.6,399.657c-33.28,0-59.733-26.453-59.733-59.733S376.32,280.19,409.6,280.19s59.733,26.453,59.733,59.733
		S442.88,399.657,409.6,399.657z M409.6,297.257c-23.893,0-42.667,18.773-42.667,42.667c0,23.893,18.773,42.667,42.667,42.667
		c23.893,0,42.667-18.773,42.667-42.667C452.267,316.03,433.493,297.257,409.6,297.257z"/>
	<path d="M426.667,339.924c0,9.387-7.68,17.067-17.067,17.067c-9.387,0-17.067-7.68-17.067-17.067
		c0-9.387,7.68-17.067,17.067-17.067C418.987,322.857,426.667,330.537,426.667,339.924"/>
	<path d="M477.867,348.457h-25.6v-8.533c0-23.893-18.773-42.667-42.667-42.667c-23.893,0-42.667,18.773-42.667,42.667v8.533H145.067
		v-8.533c0-23.893-18.773-42.667-42.667-42.667s-42.667,18.773-42.667,42.667v8.533H29.867C13.653,348.457,0,334.804,0,318.59v-76.8
		c0-5.973,2.56-11.093,5.973-15.36c4.267-3.413,9.387-5.973,15.36-5.973c10.24,0,19.627-5.12,24.747-13.653l42.667-69.12
		c11.093-17.067,29.867-28.16,50.347-28.16h174.08c20.48,0,40.107,11.093,50.347,28.16l29.013,47.787
		c13.653,21.333,37.547,34.987,62.293,34.987h34.987c11.947,0,21.333,9.387,21.333,21.333v72.533
		C512,333.097,496.64,348.457,477.867,348.457z M468.48,331.39h8.533c9.387,0,17.067-7.68,17.067-17.067v-71.68
		c0-2.56-1.707-4.267-4.267-4.267h-34.987c-31.573,0-60.587-16.213-76.8-42.667l-29.867-47.787
		c-6.827-13.653-20.48-21.333-34.987-21.333h-174.08c-14.507,0-28.16,7.68-35.84,20.48l-42.667,69.12
		c-7.68,12.8-23.04,21.333-38.4,21.333c-1.707,0-2.56,0.853-3.413,1.707c-1.707,0.853-1.707,1.707-1.707,2.56v76.8
		c0,6.827,5.973,12.8,12.8,12.8H43.52c4.267-29.013,29.013-51.2,58.88-51.2s54.613,22.187,58.88,51.2h188.587
		c4.267-29.013,29.013-51.2,58.88-51.2S464.213,302.377,468.48,331.39z"/>
	<path d="M416.427,211.924h-281.6c-8.533,0-15.36-6.827-15.36-15.36v-37.547c0-8.533,6.827-15.36,15.36-15.36h232.107l25.6,41.813
		c2.56,4.267,5.12,7.68,9.387,11.947L416.427,211.924z M136.533,194.857H378.88l0,0l0,0l-20.48-34.133H136.533V194.857z"/>
	<rect x="247.467" y="152.19" width="17.067" height="51.2"/>
	<path d="M298.667,254.59H256c-5.12,0-8.533-3.413-8.533-8.533c0-5.12,3.413-8.533,8.533-8.533h42.667
		c5.12,0,8.533,3.413,8.533,8.533C307.2,251.177,303.787,254.59,298.667,254.59z"/>
	<path d="M298.667,271.657c-5.12,0-8.533-3.413-8.533-8.533v-17.067c0-5.12,3.413-8.533,8.533-8.533s8.533,3.413,8.533,8.533v17.067
		C307.2,268.244,303.787,271.657,298.667,271.657z"/>
	<path d="M499.2,280.19h-34.133c-5.12,0-8.533-3.413-8.533-8.533c0-5.12,3.413-8.533,8.533-8.533H499.2
		c5.12,0,8.533,3.413,8.533,8.533C507.733,276.777,504.32,280.19,499.2,280.19z"/>
	<path d="M42.667,280.19H8.533c-5.12,0-8.533-3.413-8.533-8.533c0-5.12,3.413-8.533,8.533-8.533h34.133
		c5.12,0,8.533,3.413,8.533,8.533C51.2,276.777,47.787,280.19,42.667,280.19z"/>
</g>
<g>
</g>
<g>
</g>
<g>
</g>
<g>
</g>
<g>
</g>
<g>
</g>
<g>
</g>
<g>
</g>
<g>
</g>
<g>
</g>
<g>
</g>
<g>
</g>
<g>
</g>
<g>
</g>
<g>
</g>
</svg>
