<?xml version="1.0" encoding="iso-8859-1"?>
<!-- Generator: Adobe Illustrator 19.0.0, SVG Export Plug-In . SVG Version: 6.00 Build 0)  -->
<svg xmlns="http://www.w3.org/2000/svg" xmlns:xlink="http://www.w3.org/1999/xlink" version="1.1" id="Layer_1" x="0px" y="0px" viewBox="0 0 512 512" style="enable-background:new 0 0 512 512;" xml:space="preserve" width="512" height="512">
<g>
	<g>
		<g>
			<path style="fill:#FFDD33;" d="M419.8,492.88H228.795c-1.891,0-3.765-0.357-5.523-1.054l-85.479-33.856     c-5.72-2.265-9.477-7.794-9.477-13.946V212.195c0-2.635,0.694-5.223,2.012-7.504L233.165,26.718     c2.225-3.851,6.043-6.516,10.425-7.275c11.337-1.968,31.607,5.095,45.899,20.316c11.696,12.456,23.855,34.761,15.365,70.289     c-0.151,0.631-0.342,1.251-0.573,1.856l-23.381,61.338h178.625c28.936,0,52.476,22.97,52.476,51.205     c0,17.86-9.421,33.615-23.668,42.781c6.106,8.369,9.699,18.596,9.699,29.628c0,16.649-8.184,31.466-20.833,40.824     c7.013,8.707,11.2,19.677,11.2,31.585c0,18.477-10.083,34.701-25.161,43.707c5.703,8.191,9.04,18.075,9.04,28.703     C472.276,469.91,448.736,492.88,419.8,492.88z"/>
		</g>
	</g>
	<g>
		<g>
			<path style="fill:#FF9D09;" d="M487.07,328.116l-358.754-3.269v119.177c0,6.152,3.756,11.681,9.477,13.946l85.479,33.856     c1.758,0.697,3.632,1.054,5.523,1.054H419.8c28.936,0,52.476-22.97,52.476-51.205c0-10.627-3.336-20.511-9.04-28.703     c15.078-9.006,25.161-25.23,25.161-43.707c0-11.908-4.187-22.878-11.2-31.585C480.909,334.936,484.222,331.71,487.07,328.116z"/>
		</g>
	</g>
	<g>
		<path style="fill:#F03B0E;" d="M137.529,472.689H15c-8.284,0-15-6.716-15-15V192.005c0-8.284,6.716-15,15-15h122.529    c8.284,0,15,6.716,15,15v265.685C152.529,465.974,145.813,472.689,137.529,472.689z"/>
	</g>
	<g>
		<path style="fill:#BD220D;" d="M0,324.847v132.842c0,8.284,6.716,15,15,15h122.529c8.284,0,15-6.716,15-15V324.847H0z"/>
	</g>
</g>















</svg>
